{
  "accessors": [
    {
      "bufferView": 2,
      "componentType": 5126,
      "count": 65532,
      "max": [
        160.02822875976563,
        341.6976013183594,
        166.42909240722656
      ],
      "min": [
        -203.0395050048828,
        -277.895263671875,
        -150.12548828125
      ],
      "type": "VEC3"
    },
    {
      "bufferView": 2,
      "byteOffset": 786384,
      "componentType": 5126,
      "count": 65532,
      "max": [
        0.9999831318855286,
        0.9999482035636902,
        0.9999852180480957
      ],
      "min": [
        -0.9999920129776001,
        -0.9999586343765259,
        -0.9999982714653015
      ],
      "type": "VEC3"
    },
    {
      "bufferView": 1,
      "componentType": 5126,
      "count": 65532,
      "max": [
        0.8565059304237366,
        0.9467660188674927
      ],
      "min": [
        0.004260307643562555,
        0.004999999888241291
      ],
      "type": "VEC2"
    },
    {
      "bufferView": 0,
      "componentType": 5125,
      "count": 322620,
      "type": "SCALAR"
    },
    {
      "bufferView": 2,
      "byteOffset": 1572768,
      "componentType": 5126,
      "count": 65532,
      "max": [
        161.68234252929688,
        333.02301025390625,
        167.36141967773438
      ],
      "min": [
        -201.65097045898438,
        -277.2261657714844,
        -71.10607147216797
      ],
      "type": "VEC3"
    },
    {
      "bufferView": 2,
      "byteOffset": 2359152,
      "componentType": 5126,
      "count": 65532,
      "max": [
        0.9999622702598572,
        0.9994386434555054,
        0.9999990463256836
      ],
      "min": [
        -0.9999759793281555,
        -0.9999586343765259,
        -0.9999947547912598
      ],
      "type": "VEC3"
    },
    {
      "bufferView": 1,
      "byteOffset": 524256,
      "componentType": 5126,
      "count": 65532,
      "max": [
        0.9604668617248535,
        0.9382427930831909
      ],
      "min": [
        0.004999704193323851,
        0.004999999888241291
      ],
      "type": "VEC2"
    },
    {
      "bufferView": 0,
      "byteOffset": 1290480,
      "componentType": 5125,
      "count": 302034,
      "type": "SCALAR"
    },
    {
      "bufferView": 2,
      "byteOffset": 3145536,
      "componentType": 5126,
      "count": 42617,
      "max": [
        161.68234252929688,
        341.5356750488281,
        -6.333950042724609
      ],
      "min": [
        -201.54074096679688,
        -277.7419738769531,
        -102.40789794921875
      ],
      "type": "VEC3"
    },
    {
      "bufferView": 2,
      "byteOffset": 3656940,
      "componentType": 5126,
      "count": 42617,
      "max": [
        0.9999878406524658,
        0.9994386434555054,
        0.9999669790267944
      ],
      "min": [
        -0.9999887943267822,
        -0.9998932480812073,
        -0.9999982714653015
      ],
      "type": "VEC3"
    },
    {
      "bufferView": 1,
      "byteOffset": 1048512,
      "componentType": 5126,
      "count": 42617,
      "max": [
        0.994854211807251,
        0.9457522630691528
      ],
      "min": [
        0.005001978483051062,
        0.004999999888241291
      ],
      "type": "VEC2"
    },
    {
      "bufferView": 0,
      "byteOffset": 2498616,
      "componentType": 5125,
      "count": 188028,
      "type": "SCALAR"
    }
  ],
  "asset": {
    "extras": {
      "author": "axis3d (https://sketchfab.com/axis3dvr)",
      "license": "COPYRIGHT TO axis3d",
      "source": "https://sketchfab.com/3d-models/--1185c77da336485a9edc16ba32b750f7",
      "title": "暗棗紅背心/艾雯_台文館"
    },
    "generator": "Sketchfab-11.38.0",
    "version": "2.0"
  },
  "bufferViews": [
    {
      "buffer": 0,
      "byteLength": 3250728,
      "name": "floatBufferViews",
      "target": 34963
    },
    {
      "buffer": 0,
      "byteLength": 1389448,
      "byteOffset": 3250728,
      "byteStride": 8,
      "name": "floatBufferViews",
      "target": 34962
    },
    {
      "buffer": 0,
      "byteLength": 4168344,
      "byteOffset": 4640176,
      "byteStride": 12,
      "name": "floatBufferViews",
      "target": 34962
    }
  ],
  "buffers": [
    {
      "byteLength": 8808520,
      "uri": "scene.bin"
    }
  ],
  "images": [
    {
      "uri": "textures/NMTL20070560010-002-150mesh_baseColor.jpeg"
    }
  ],
  "materials": [
    {
      "doubleSided": true,
      "name": "NMTL20070560010-002-150mesh",
      "pbrMetallicRoughness": {
        "baseColorTexture": {
          "index": 0
        },
        "metallicFactor": 0.0,
        "roughnessFactor": 0.9164338742431171
      }
    }
  ],
  "meshes": [
    {
      "name": "NMTL20070560010-002-150mesh_NMTL20070560010-002-150mesh_0",
      "primitives": [
        {
          "attributes": {
            "NORMAL": 1,
            "POSITION": 0,
            "TEXCOORD_0": 2
          },
          "indices": 3,
          "material": 0,
          "mode": 4
        }
      ]
    },
    {
      "name": "NMTL20070560010-002-150mesh_NMTL20070560010-002-150mesh_0",
      "primitives": [
        {
          "attributes": {
            "NORMAL": 5,
            "POSITION": 4,
            "TEXCOORD_0": 6
          },
          "indices": 7,
          "material": 0,
          "mode": 4
        }
      ]
    },
    {
      "name": "NMTL20070560010-002-150mesh_NMTL20070560010-002-150mesh_0",
      "primitives": [
        {
          "attributes": {
            "NORMAL": 9,
            "POSITION": 8,
            "TEXCOORD_0": 10
          },
          "indices": 11,
          "material": 0,
          "mode": 4
        }
      ]
    }
  ],
  "nodes": [
    {
      "children": [
        1
      ],
      "matrix": [
        0.0017356761964038014,
        0.0,
        0.0,
        0.0,
        0.0,
        3.8539753530826314e-19,
        -0.0017356761964038014,
        0.0,
        0.0,
        0.0017356761964038014,
        3.8539753530826314e-19,
        0.0,
        0.0,
        0.0,
        0.0,
        1.0
      ],
      "name": "Sketchfab_model"
    },
    {
      "children": [
        2
      ],
      "matrix": [
        1.0,
        0.0,
        0.0,
        0.0,
        0.0,
        0.0,
        1.0,
        0.0,
        0.0,
        -1.0,
        0.0,
        0.0,
        0.0,
        0.0,
        0.0,
        1.0
      ],
      "name": "1b4f523adc8c458ea6dcfcfe083a7e23.fbx"
    },
    {
      "children": [
        3
      ],
      "name": "RootNode"
    },
    {
      "children": [
        4,
        5,
        6
      ],
      "matrix": [
        0.9636660218238831,
        0.0,
        0.0,
        0.0,
        0.0,
        0.9636660218238702,
        1.570011283317908e-07,
        0.0,
        0.0,
        -1.570011283317908e-07,
        0.9636660218238702,
        0.0,
        0.0,
        0.0,
        0.0,
        1.0
      ],
      "name": "NMTL20070560010-002-150mesh"
    },
    {
      "mesh": 0,
      "name": "NMTL20070560010-002-150mesh_NMTL20070560010-002-150mesh_0"
    },
    {
      "mesh": 1,
      "name": "NMTL20070560010-002-150mesh_NMTL20070560010-002-150mesh_0"
    },
    {
      "mesh": 2,
      "name": "NMTL20070560010-002-150mesh_NMTL20070560010-002-150mesh_0"
    }
  ],
  "samplers": [
    {
      "magFilter": 9729,
      "minFilter": 9987,
      "wrapS": 10497,
      "wrapT": 10497
    }
  ],
  "scene": 0,
  "scenes": [
    {
      "name": "Sketchfab_Scene",
      "nodes": [
        0
      ]
    }
  ],
  "textures": [
    {
      "sampler": 0,
      "source": 0
    }
  ]
}
